<?xml version="1.0" encoding="utf-8"?>
<!-- Generator: Adobe Illustrator 22.1.0, SVG Export Plug-In . SVG Version: 6.00 Build 0)  -->
<svg version="1.1" id="Layer_1" xmlns="http://www.w3.org/2000/svg" xmlns:xlink="http://www.w3.org/1999/xlink" x="0px" y="0px"
	 viewBox="0 0 768 768" style="enable-background:new 0 0 768 768;" xml:space="preserve">
<style type="text/css">
	.st0{fill:none;stroke:#FFFFFF;stroke-width:1.875;stroke-linecap:round;stroke-miterlimit:10;}
</style>
<g>
	<g>
		<path class="st0" d="M580.8,335.5c32.8-20.1-115.8-184.9-145.9-176.7"/>
		<path class="st0" d="M434.9,158.8c-30.1,8.2-46.4,167.4-34.9,226"/>
		<path class="st0" d="M400,384.7c11.5,58.6,111.1,101.6,104.1,125.7"/>
		<path class="st0" d="M504.1,510.4c-7,24.1-158.7,17-146.2,18.7"/>
		<path class="st0" d="M358,529.1c12.5,1.8,212.8-9.2,221.3-8.1"/>
		<path class="st0" d="M579.2,521c8.5,1-115.8,20.9-170.3,14.3"/>
		<path class="st0" d="M409,535.3c-54.5-6.6-164.1-7.8-156.5-54"/>
		<path class="st0" d="M252.5,481.3C260.2,435,431.7,252.8,455,257.8"/>
		<path class="st0" d="M455,257.8c23.3,5-45.9,219.4-62.5,253.3"/>
		<path class="st0" d="M392.5,511.1C376,545,342,489,355.8,461.2"/>
		<path class="st0" d="M355.8,461.2c13.8-27.8,139.8-108.6,119.7-117"/>
		<path class="st0" d="M475.5,344.2c-20.1-8.4-223.7,51.7-240.5,66.8"/>
		<path class="st0" d="M235,411c-16.8,15.1,94.6,9.9,139.7,23.8"/>
		<path class="st0" d="M374.7,434.8c45.1,13.9,89.6,55.6,130.9,59.7"/>
		<path class="st0" d="M505.6,494.5c41.4,4.1,123.6,11.1,117.3-35.2"/>
		<path class="st0" d="M622.9,459.3c-6.3-46.3-118.8-221.4-155-242.7"/>
		<path class="st0" d="M467.9,216.6c-36.2-21.4-23.5,85.8-62.4,114.6"/>
		<path class="st0" d="M405.6,331.2c-38.9,28.8-143,66.7-170.9,58"/>
		<path class="st0" d="M234.6,389.2c-27.9-8.7-54.4-101,3.3-110"/>
		<path class="st0" d="M238,279.2c57.7-8.9,310,76.4,342.8,56.3"/>
	</g>
</g>
</svg>
