<?xml version="1.0" encoding="UTF-8"?>
<svg width="287px" height="29px" viewBox="0 0 287 29" version="1.1" xmlns="http://www.w3.org/2000/svg" xmlns:xlink="http://www.w3.org/1999/xlink">
    <!-- Generator: Sketch 55.2 (78181) - https://sketchapp.com -->
    <title>icons</title>
    <desc>Created with Sketch.</desc>
    <g id="Welcome" stroke="none" stroke-width="1" fill="none" fill-rule="evenodd">
        <g id="Artboard" transform="translate(-142.000000, -87.000000)">
            <g id="icons" transform="translate(142.000000, 87.000000)">
                <g id="Group" transform="translate(179.000000, 0.000000)" fill="#000000" fill-rule="nonzero">
                    <path d="M7.5,0 L7.5,1 L35.608,1 L38.306,12 L17.5,12 C9.846,12 0.502,23.692 0.108,24.1895 L0,24.326 L0,28 L43,28 L43,27 L36.392,0 L7.5,0 Z M41.9855,27 L1,27 L1,24.677 C2.065,23.3715 10.7455,13 17.5,13 L38.5515,13 L41.9855,27 Z" id="Shape"></path>
                    <path d="M15,20.5 C15,21.8785 16.1215,23 17.5,23 C18.8785,23 20,21.8785 20,20.5 C20,19.1215 18.8785,18 17.5,18 C16.1215,18 15,19.1215 15,20.5 Z" id="Path"></path>
                    <path d="M26.5,23 C27.8785,23 29,21.8785 29,20.5 C29,19.1215 27.8785,18 26.5,18 C25.1215,18 24,19.1215 24,20.5 C24,21.8785 25.1215,23 26.5,23 Z" id="Path"></path>
                </g>
                <g id="Wash-At-Or-Below-40°C" fill="#000000" fill-rule="nonzero">
                    <path d="M28.3181818,28 L31.9967273,0.411636364 L31.276,0.315272727 L29.924,10.4552727 C29.2756364,10.2625455 28.8614545,9.77345455 28.4018182,9.22181818 C27.7829091,8.47854545 27.0814545,7.63636364 25.6992727,7.63636364 C24.3170909,7.63636364 23.6156364,8.47854545 22.9963636,9.22181818 C22.4047273,9.932 21.8938182,10.5454545 20.8523636,10.5454545 C19.8105455,10.5454545 19.2992727,9.932 18.7072727,9.22181818 C18.088,8.47854545 17.3861818,7.63636364 16.0032727,7.63636364 C14.6210909,7.63636364 13.9192727,8.47854545 13.3,9.22181818 C12.7083636,9.932 12.1974545,10.5454545 11.156,10.5454545 C10.1134545,10.5454545 9.60218182,9.932 9.00981818,9.22145455 C8.39018182,8.47854545 7.688,7.63636364 6.30509091,7.63636364 C4.92218182,7.63636364 4.22,8.47854545 3.60036364,9.22145455 C3.14036364,9.77345455 2.72545455,10.2629091 2.07563636,10.4556364 L0.724,0.315636364 L0.00327272727,0.412 L3.68181818,28 L28.3181818,28 Z M4.15927273,9.68727273 C4.75127273,8.97709091 5.26290909,8.36363636 6.30509091,8.36363636 C7.34727273,8.36363636 7.85890909,8.97709091 8.45090909,9.68727273 C9.07054545,10.4301818 9.77272727,11.2727273 11.1556364,11.2727273 C12.5378182,11.2727273 13.2392727,10.4305455 13.8585455,9.68727273 C14.4501818,8.97709091 14.9614545,8.36363636 16.0029091,8.36363636 C17.0447273,8.36363636 17.556,8.97709091 18.148,9.68727273 C18.7672727,10.4301818 19.4690909,11.2727273 20.8516364,11.2727273 C22.2338182,11.2727273 22.9356364,10.4305455 23.5549091,9.68727273 C24.1469091,8.97709091 24.6581818,8.36363636 25.6992727,8.36363636 C26.7403636,8.36363636 27.2516364,8.97709091 27.8429091,9.68727273 C28.3429091,10.2876364 28.904,10.9450909 29.8276364,11.1785455 L27.6818182,27.2727273 L4.31818182,27.2727273 L2.17236364,11.1789091 C3.09709091,10.9458182 3.65854545,10.288 4.15927273,9.68727273 Z" id="Shape"></path>
                    <polygon id="Path" points="13.2370909 23.6614545 14.0323636 23.6614545 14.0323636 21.2196364 15.2883636 21.2196364 15.2883636 20.5498182 14.0323636 20.5498182 14.0323636 17.8283636 13.3349091 17.8283636 13.2370909 20.5498182 10.0414545 20.5498182 12.6927273 14.5072727 12.0090909 14.228 9.17636364 20.6192727 9.17636364 21.2196364 13.2370909 21.2196364"></polygon>
                    <path d="M19.6134545,23.8152727 C21.5112727,23.8152727 22.5301818,22.1683636 22.5301818,19.0283636 C22.5301818,15.8749091 21.5254545,14.228 19.6134545,14.228 C17.7018182,14.228 16.6967273,15.8749091 16.6967273,19.0145455 C16.6970909,22.1545455 17.7018182,23.8152727 19.6134545,23.8152727 Z M19.6134545,14.8978182 C20.9530909,14.8978182 21.6789091,16.1676364 21.6789091,19.0283636 C21.6789091,21.8890909 20.9530909,23.1450909 19.6134545,23.1450909 C18.2738182,23.1450909 17.5341818,21.8752727 17.5341818,19.0145455 C17.5341818,16.1541818 18.288,14.8978182 19.6134545,14.8978182 Z" id="Shape"></path>
                </g>
                <path d="M286.222222,4.13233333 L281.333111,6.85455556 C278.888556,2.75411111 274.410889,0 269.300111,0 C264.189333,0 259.711667,2.75411111 257.2675,6.85455556 L252.378389,4.13233333 L252,4.81211111 L256.888722,7.53433333 C255.876056,9.47022222 255.300111,11.6682222 255.300111,14 C255.300111,16.3317778 255.876056,18.5297778 256.888722,20.4656667 L252,23.1878889 L252.378389,23.8676667 L257.2675,21.1454444 C259.711667,25.2458889 264.189333,28 269.300111,28 C274.410889,28 278.888556,25.2458889 281.332722,21.1454444 L286.221833,23.8676667 L286.600222,23.1878889 L281.7115,20.4656667 C282.724167,18.5297778 283.300111,16.3317778 283.300111,14 C283.300111,11.6682222 282.724167,9.47022222 281.7115,7.53433333 L286.600222,4.81211111 L286.222222,4.13233333 Z M269.300111,0.777777778 C274.119611,0.777777778 278.342944,3.37011111 280.653722,7.23294444 L269.300111,13.5547222 L257.9465,7.23294444 C260.257278,3.37011111 264.480611,0.777777778 269.300111,0.777777778 Z M256.077889,14 C256.077889,11.8055 256.618444,9.73622222 257.568111,7.91272222 L268.500556,14 L257.568111,20.0872778 C256.618444,18.2637778 256.077889,16.1945 256.077889,14 Z M269.300111,27.2222222 C264.480611,27.2222222 260.257278,24.6298889 257.9465,20.7670556 L269.300111,14.4452778 L280.653722,20.7674444 C278.342944,24.6298889 274.119611,27.2222222 269.300111,27.2222222 Z M282.522333,14 C282.522333,16.1945 281.981778,18.2637778 281.032111,20.0872778 L270.099667,14 L281.032111,7.91272222 C281.981778,9.73622222 282.522333,11.8055 282.522333,14 Z" id="Do-Not-Dry-Clean" fill="#000000" fill-rule="nonzero"></path>
                <path d="M62.4358284,28 L64.6585215,25.8782954 L87.5488205,25.8782954 L89.7715136,28 L90.207342,27.5436584 L88.4627661,25.8782954 L89.9895856,25.8782954 L89.9895856,24.852 L81.7549226,9.55887425 L90.2076575,1.4905267 L89.7718292,1.03418505 L81.4446987,8.98260879 L76.6076666,0 L75.5996754,0 L70.7626433,8.98260879 L62.4358284,1.03418505 L62,1.4905267 L70.4527349,9.55887425 L62.2177564,24.852 L62.2177564,25.8782954 L63.7445758,25.8782954 L62,27.5436584 L62.4358284,28 Z M65.3196804,25.2471174 L76.103671,14.9532365 L86.8876616,25.2471174 L65.3196804,25.2471174 Z M89.3584076,25.0110569 L89.3584076,25.2471174 L87.8016072,25.2471174 L76.5606438,14.5170925 L81.2812236,10.0107977 L89.3584076,25.0110569 Z M75.9764886,0.631177936 L76.2308533,0.631177936 L80.9713152,9.43484778 L76.103671,14.0809486 L71.2363423,9.43484778 L75.9764886,0.631177936 Z M62.8489343,25.2471174 L62.8489343,25.0110569 L70.9258028,10.0107977 L75.6466982,14.5170925 L64.4057347,25.2471174 L62.8489343,25.2471174 Z" id="Do-Not-Bleach" fill="#000000" fill-rule="nonzero"></path>
                <g id="tumble-drying" transform="translate(121.000000, 1.000000)"></g>
                <path d="M122,27 L147,27 L147,2 L122,2 L122,27 Z M122.581395,2.58139535 L146.418605,2.58139535 L146.418605,26.4186047 L122.581395,26.4186047 L122.581395,2.58139535 Z" id="Shape" fill="#000000" fill-rule="nonzero"></path>
                <path d="M134.5,3.30813953 C128.328779,3.30813953 123.30814,8.32877907 123.30814,14.5 C123.30814,20.6712209 128.328779,25.6918605 134.5,25.6918605 C140.671221,25.6918605 145.69186,20.6712209 145.69186,14.5 C145.69186,8.32877907 140.671221,3.30813953 134.5,3.30813953 Z M134.5,25.1104651 C128.649419,25.1104651 123.889535,20.3505814 123.889535,14.5 C123.889535,8.6494186 128.649419,3.88953488 134.5,3.88953488 C140.350581,3.88953488 145.110465,8.6494186 145.110465,14.5 C145.110465,20.3505814 140.350581,25.1104651 134.5,25.1104651 Z" id="Shape" fill="#000000" fill-rule="nonzero"></path>
                <polyline id="Path-24" stroke="#000000" stroke-width="0.7" points="121 27.965815 144.545992 5.10319232 148.771829 1"></polyline>
            </g>
        </g>
    </g>
</svg>